<?xml version="1.0" encoding="UTF-8"?>
<svg version="1.1" xmlns="http://www.w3.org/2000/svg" width="1080" height="1080">
<path d="M0 0 C3 1.375 3 1.375 4.875 4.4375 C6.19813139 8.35007258 6.64021376 12.27343687 7 16.375 C7.59425781 15.79492188 8.18851563 15.21484375 8.80078125 14.6171875 C18.29248484 5.67166281 27.1987717 -0.04796446 40.44921875 0.16796875 C48.3167215 0.80652564 53.65456416 4.76938808 59 10.375 C60.51573443 12.32501789 61.74891393 14.23772796 63 16.375 C66.60695495 14.12065316 69.74055541 11.75546785 72.875 8.875 C80.72402501 1.88141367 88.47510321 -0.01744036 98.859375 0.09765625 C104.98555588 0.63864984 110.73722739 2.52469737 114.9375 7.1875 C119.07063488 13.57507209 121.09736345 19.63883216 121.15771484 27.20605469 C121.16797699 28.1376239 121.17823914 29.06919312 121.18881226 30.0289917 C121.19611359 31.02489319 121.20341492 32.02079468 121.2109375 33.046875 C121.23901075 35.17709096 121.26767525 37.30729919 121.296875 39.4375 C121.33805908 42.77929426 121.37496797 46.12094502 121.40136719 49.46289062 C121.42912064 52.6995178 121.47499365 55.93549991 121.5234375 59.171875 C121.5283168 60.65358185 121.5283168 60.65358185 121.53329468 62.16522217 C121.67330966 70.14513964 122.89127226 77.04990851 128 83.375 C128 84.365 128 85.355 128 86.375 C128.66 86.375 129.32 86.375 130 86.375 C130.0825 85.859375 130.165 85.34375 130.25 84.8125 C131.11237809 82.00977119 132.50287866 79.725218 134.0625 77.25390625 C136.4979316 72.37289541 136.18959747 66.89450891 136.23828125 61.56640625 C136.25038887 60.29989479 136.25038887 60.29989479 136.26274109 59.00779724 C136.27653167 57.22681706 136.28727615 55.44581101 136.29516602 53.66479492 C136.30671113 51.84830959 136.32720276 50.03185885 136.35668945 48.21557617 C136.39940435 45.58228656 136.41553686 42.94999943 136.42578125 40.31640625 C136.45204338 39.10676964 136.45204338 39.10676964 136.47883606 37.87269592 C136.45457064 31.534075 134.54195981 27.91695981 130 23.375 C129.5625 19.9375 129.5625 19.9375 130 16.375 C133.80721924 13.43966303 138.12849115 12.33281373 142.6875 11.0625 C149.46616717 9.07032289 155.16633781 6.42648433 161 2.375 C164 0.375 164 0.375 167.5 0.375 C171 1.375 171 1.375 172.69470215 4.03567505 C174.07389137 7.56403524 174.37772019 10.03361332 174.38476562 13.80419922 C174.39487671 15.05925262 174.40498779 16.31430603 174.41540527 17.60739136 C174.41384933 18.27069332 174.4122934 18.93399529 174.41069031 19.61739731 C174.40617981 21.71228858 174.42030256 23.80634937 174.43908691 25.90115356 C174.47573616 30.35075583 174.48955124 34.8002691 174.5 39.25 C174.51212232 44.40351847 174.53387344 49.55662884 174.58000183 54.70996475 C174.59346797 56.76171633 174.58942041 58.81293796 174.58459473 60.86471558 C174.64843961 68.82936514 174.71441914 75.62005045 180.1875 81.875 C180.785625 82.37 181.38375 82.865 182 83.375 C187.11679846 73.45235339 187.47471656 64.09411967 187.39111328 53.14208984 C187.37494444 50.61632012 187.39107018 48.09212922 187.41015625 45.56640625 C187.40817515 43.945309 187.40433425 42.32421273 187.3984375 40.703125 C187.40754654 39.58263763 187.40754654 39.58263763 187.4168396 38.43951416 C187.34414673 32.99676109 186.30041153 28.67541153 182.375 24.75 C180.57705751 22.95205751 180.14954741 21.91730592 180 19.375 C180.8671875 16.953125 180.8671875 16.953125 183 14.375 C186.22088061 12.8782968 189.58852425 11.96645711 193 11 C200.58278762 8.70444712 206.37226979 6.2131839 212.83203125 1.6328125 C215.18620271 0.26696888 216.38128692 -0.0219283 219.0625 0.25 C222 1.375 222 1.375 224 4.375 C224.44429438 6.42369074 224.81294195 8.48954293 225.125 10.5625 C225.29257812 11.64917969 225.46015625 12.73585938 225.6328125 13.85546875 C225.75398438 14.68691406 225.87515625 15.51835938 226 16.375 C226.59425781 15.79492188 227.18851563 15.21484375 227.80078125 14.6171875 C237.61959945 5.36337128 246.3963194 -0.00080414 259.96484375 0.1640625 C266.36835423 0.60909412 271.73256155 2.92915401 276.35522461 7.44213867 C284.523943 17.04162561 282.60297088 31.67486706 282.625 43.4375 C282.64144515 46.54200589 282.66368667 49.64621915 282.69662476 52.75059509 C282.7159648 54.67057277 282.72562189 56.59068349 282.72354126 58.51075745 C282.79519228 67.61982163 283.77001915 74.96263941 288.94140625 82.55859375 C290.54642799 85.31259785 290.64552685 87.29081616 290 90.375 C287.54698655 92.96380046 286.08613769 93.36543516 282.50415039 93.76318359 C281.1187885 93.78290562 279.73310746 93.78533131 278.34765625 93.7734375 C277.2419352 93.77774277 277.2419352 93.77774277 276.11387634 93.78213501 C274.55808746 93.78417226 273.00227277 93.77866606 271.4465332 93.76611328 C269.07379404 93.75007633 266.70276398 93.76596016 264.33007812 93.78515625 C262.81510043 93.78317331 261.30012379 93.77932858 259.78515625 93.7734375 C259.0798024 93.77951019 258.37444855 93.78558289 257.64772034 93.7918396 C253.27053803 93.7298203 250.43117453 93.14297343 247 90.375 C245.11403187 87.33416501 244.74650454 85.0078833 244.72875977 81.45800781 C244.71347984 79.9956369 244.71347984 79.9956369 244.69789124 78.50372314 C244.69575119 77.45577576 244.69361115 76.40782837 244.69140625 75.328125 C244.66623981 73.09895579 244.64084188 70.86978919 244.61523438 68.640625 C244.58653678 65.13412183 244.56251429 61.62766401 244.54370117 58.12109375 C244.52196707 54.7315292 244.48251421 51.34250203 244.44140625 47.953125 C244.44123253 46.3933493 244.44123253 46.3933493 244.4410553 44.80206299 C244.35782518 38.64020627 243.6320368 33.97542318 241 28.375 C238.48389288 26.20594214 237.26672636 26.36411321 233.9375 26.5 C230.99288451 27.1410227 230.99288451 27.1410227 229.25 29 C226.34915443 34.51160658 225.69102236 40.07719826 225.69921875 46.21484375 C225.69493362 46.94063126 225.6906485 47.66641876 225.68623352 48.41419983 C225.68052618 49.93945275 225.67996322 51.46473287 225.68432617 52.98999023 C225.68748709 55.30305088 225.66398039 57.61483122 225.63867188 59.92773438 C225.46888026 71.93805798 225.46888026 71.93805798 230.6875 82.5 C232.62267918 85.26454169 232.55823999 87.09534004 232 90.375 C227.58568067 94.15909959 223.00818824 93.79611141 217.5 93.73828125 C216.58669922 93.73877975 215.67339844 93.73927826 214.73242188 93.73979187 C212.80596739 93.73745664 210.87950956 93.72776065 208.953125 93.71118164 C206.01013811 93.6875813 203.06805757 93.69062604 200.125 93.69726562 C198.24999462 93.69168859 196.37499304 93.68457855 194.5 93.67578125 C193.62279297 93.67669266 192.74558594 93.67760406 191.84179688 93.67854309 C188.23175368 93.6368002 185.53584912 93.59052654 182.15625 92.23120117 C181.4446875 91.94865479 180.733125 91.6661084 180 91.375 C178.664188 92.03668612 177.33113613 92.7039569 176 93.375 C173.99610901 93.63569641 173.99610901 93.63569641 171.86157227 93.6496582 C171.05716202 93.65919022 170.25275177 93.66872223 169.42396545 93.67854309 C168.56347092 93.67763168 167.70297638 93.67672028 166.81640625 93.67578125 C165.47762672 93.68220894 165.47762672 93.68220894 164.11180115 93.68876648 C162.22647957 93.69450264 160.34113586 93.6950153 158.45581055 93.69067383 C155.57627483 93.68751511 152.69776803 93.71097732 149.81835938 93.73632812 C147.98437629 93.73860136 146.15039046 93.7393045 144.31640625 93.73828125 C143.45793594 93.747491 142.59946564 93.75670074 141.71498108 93.76618958 C137.03214531 93.73007051 133.75636726 93.51351538 130 90.375 C130 89.715 130 89.055 130 88.375 C129.34 88.375 128.68 88.375 128 88.375 C127.814375 89.3340625 127.814375 89.3340625 127.625 90.3125 C127.41875 90.993125 127.2125 91.67375 127 92.375 C123.98261886 93.88369057 120.85395827 93.55851891 117.54296875 93.578125 C116.43300285 93.58667511 116.43300285 93.58667511 115.3006134 93.59539795 C113.73289419 93.60485018 112.16515509 93.61138282 110.59741211 93.61523438 C108.20716293 93.62492032 105.81778095 93.65593195 103.42773438 93.6875 C101.90365093 93.69403223 100.37956135 93.69928184 98.85546875 93.703125 C98.14384079 93.7154718 97.43221283 93.7278186 96.69902039 93.74053955 C92.28001925 93.72085948 89.4994069 93.10854883 86 90.375 C83.87163098 87.18244647 83.74755308 86.35985322 83.72875977 82.69506836 C83.71347984 81.27229836 83.71347984 81.27229836 83.69789124 79.82078552 C83.69575119 78.79582474 83.69361115 77.77086395 83.69140625 76.71484375 C83.66622825 74.53710691 83.64083051 72.35937259 83.61523438 70.18164062 C83.58659791 66.75432092 83.56258012 63.32704563 83.54370117 59.8996582 C83.52189535 56.58780985 83.48242491 53.27650205 83.44140625 49.96484375 C83.44123253 48.448657 83.44123253 48.448657 83.4410553 46.90184021 C83.35424518 40.5852164 82.97681666 34.07649509 80 28.375 C77.03041763 26.45455881 75.21573788 26.17237702 71.75 26.75 C70.5125 26.95625 69.275 27.1625 68 27.375 C65.70929492 33.02540588 64.81859968 37.61125362 64.76171875 43.69921875 C64.74961113 44.92956596 64.74961113 44.92956596 64.73725891 46.18476868 C64.72343132 47.92222998 64.71270324 49.65971829 64.70483398 51.3972168 C64.69333568 53.16520199 64.67291795 54.93315307 64.64331055 56.70092773 C64.60040398 59.26309669 64.58443159 61.82423402 64.57421875 64.38671875 C64.54795662 65.557472 64.54795662 65.557472 64.52116394 66.75187683 C64.54873807 73.82551933 67.14045868 78.58568803 71 84.375 C71.375 87.375 71.375 87.375 71 90.375 C68.5701397 92.98952815 67.08259837 93.36582817 63.50415039 93.76318359 C62.1187885 93.78290562 60.73310746 93.78533131 59.34765625 93.7734375 C58.2419352 93.77774277 58.2419352 93.77774277 57.11387634 93.78213501 C55.55808746 93.78417226 54.00227277 93.77866606 52.4465332 93.76611328 C50.07379404 93.75007633 47.70276398 93.76596016 45.33007812 93.78515625 C43.81510043 93.78317331 42.30012379 93.77932858 40.78515625 93.7734375 C40.0798024 93.77951019 39.37444855 93.78558289 38.64772034 93.7918396 C34.27996725 93.7299539 31.34194222 93.26633898 28 90.375 C25.24763518 85.06200579 25.70367994 79.15998018 25.69140625 73.31640625 C25.66625122 71.1347629 25.64085312 68.95312233 25.61523438 66.77148438 C25.58649083 63.35051162 25.56245662 59.92958719 25.54370117 56.50854492 C25.52200171 53.19424971 25.48256596 49.88050866 25.44140625 46.56640625 C25.44123253 45.04111046 25.44123253 45.04111046 25.4410553 43.48500061 C25.36059366 37.68735821 24.80255444 33.49036303 22 28.375 C19.54133612 26.34024368 18.20114586 26.37919054 15 26.3125 C11.45913178 27.56655749 10.48306777 29.10771463 8.76171875 32.390625 C6.23870829 38.96339072 6.77833326 46.05811924 6.75976562 52.98461914 C6.75007548 55.17047411 6.71902239 57.35538142 6.6875 59.54101562 C6.50582534 71.21919556 6.50582534 71.21919556 11.6875 81.4375 C13.75614969 84.49122097 13.519215 86.80539684 13 90.375 C8.66558262 94.13398985 4.1508232 93.79677076 -1.28125 93.73828125 C-2.17235474 93.73877975 -3.06345947 93.73927826 -3.98156738 93.73979187 C-5.86094397 93.73745695 -7.74032401 93.7277628 -9.61962891 93.71118164 C-12.49019444 93.68758062 -15.35983074 93.69062632 -18.23046875 93.69726562 C-20.05990135 93.69168858 -21.88933005 93.68457853 -23.71875 93.67578125 C-24.57408325 93.67669266 -25.4294165 93.67760406 -26.31066895 93.67854309 C-30.57918099 93.62795779 -34.19959075 93.56191361 -38 91.375 C-39.125 88.75 -39.125 88.75 -39 85.375 C-37.92456737 83.3337867 -36.71445814 81.5356867 -35.32421875 79.6953125 C-31.94008974 73.76559972 -31.68328637 67.1524325 -31.6640625 60.4921875 C-31.6574057 59.67428741 -31.6507489 58.85638733 -31.64389038 58.01370239 C-31.63383343 56.29773181 -31.62907118 54.58172267 -31.62939453 52.86572266 C-31.62499945 50.24967366 -31.58854856 47.63528514 -31.55078125 45.01953125 C-31.54491581 43.34375571 -31.54094459 41.66797225 -31.5390625 39.9921875 C-31.52469147 39.21704803 -31.51032043 38.44190857 -31.49551392 37.64328003 C-31.54757505 31.42874898 -33.55594023 27.81905977 -38 23.375 C-38.4375 19.9375 -38.4375 19.9375 -38 16.375 C-33.96675721 13.2292291 -29.19502419 12.0799974 -24.375 10.625 C-18.62802828 8.83171321 -13.80022166 6.91295 -8.8125 3.4375 C-3.58125 -0.17053571 -3.58125 -0.17053571 0 0 Z " fill="#8C52FF" transform="translate(513,496.625)"/>
<path d="M0 0 C0.87100342 -0.00307663 1.74200684 -0.00615326 2.6394043 -0.00932312 C3.57695557 -0.0021376 4.51450684 0.00504791 5.48046875 0.01245117 C6.92836792 0.0131385 6.92836792 0.0131385 8.40551758 0.01383972 C10.44646433 0.01686089 12.48740879 0.02474313 14.52832031 0.03710938 C17.65568189 0.05534826 20.78274707 0.05761914 23.91015625 0.05737305 C25.89192965 0.06228903 27.87370104 0.0681177 29.85546875 0.07495117 C30.79302002 0.076064 31.73057129 0.07717682 32.6965332 0.07832336 C34.00303833 0.08789314 34.00303833 0.08789314 35.3359375 0.09765625 C36.10188232 0.10146805 36.86782715 0.10527985 37.65698242 0.10920715 C39.66796875 0.24291992 39.66796875 0.24291992 42.66796875 1.24291992 C44.13447241 4.17592724 44.0323717 5.96329337 43.66796875 9.24291992 C42.52856854 11.38186617 41.25510085 13.33297181 39.859375 15.31323242 C37.22897676 19.57361515 37.53027367 24.07959519 37.55444336 28.94897461 C37.55429733 29.72009079 37.55415131 30.49120697 37.55400085 31.28569031 C37.55469626 33.82875402 37.56247126 36.37174404 37.5703125 38.91479492 C37.572178 40.6802771 37.57360128 42.4457598 37.57460022 44.21124268 C37.578415 48.85383539 37.58823643 53.49639672 37.5993042 58.13897705 C37.60954065 62.87804744 37.61410263 67.61712291 37.61914062 72.35620117 C37.62985962 81.65178786 37.64692358 90.94735128 37.66796875 100.24291992 C40.89646497 101.85716803 44.1676281 101.6876093 47.66796875 101.24291992 C57.87509737 96.84329552 62.76954197 87.17386991 68.25585938 78.0065918 C73.41288463 69.59390247 73.41288463 69.59390247 77.66796875 67.24291992 C81.48046875 66.99291992 81.48046875 66.99291992 84.66796875 67.24291992 C85.03148437 65.43307617 85.03148437 65.43307617 85.40234375 63.58666992 C85.74030524 61.97196505 86.07887976 60.3573884 86.41796875 58.74291992 C86.57523437 57.95143555 86.7325 57.15995117 86.89453125 56.34448242 C89.27579083 45.17087979 94.78092093 35.83107888 104.46484375 29.37963867 C118.24855621 22.03197184 134.9779437 19.76054801 150.24609375 23.50073242 C162.27256476 27.18626386 172.35080416 32.92192477 178.7109375 44.20385742 C185.19986531 58.02924647 185.58457304 73.85493508 180.66796875 88.24291992 C176.78805022 98.81429215 168.74417926 106.5020705 158.66796875 111.24291992 C143.34904262 117.08197248 126.2329935 116.8953274 110.8828125 111.21166992 C98.76130669 105.66612785 92.70058347 97.2598559 87.66796875 85.24291992 C86.97617827 83.25147061 86.30061499 81.25394035 85.66796875 79.24291992 C84.86794711 82.32414612 84.07821287 85.40789515 83.29296875 88.49291992 C83.06037354 89.40428711 82.82777832 90.3156543 82.58813477 91.25463867 C81.11922257 97.11988809 79.95922614 102.90887769 79.3203125 108.93041992 C78.42636581 112.09938063 77.27481945 113.22343657 74.66796875 115.24291992 C71.98331033 115.63780358 69.70795858 115.79074769 67.02539062 115.76049805 C66.26069962 115.76750732 65.49600861 115.7745166 64.70814514 115.78173828 C62.18396541 115.79932342 59.6609096 115.78769441 57.13671875 115.77416992 C55.3808165 115.77686471 53.6249157 115.78074701 51.86901855 115.7857666 C48.19036643 115.79166233 44.51210301 115.78309648 40.83349609 115.7644043 C36.11875214 115.74161449 31.40491897 115.7547372 26.69020844 115.77869415 C23.06476991 115.79315024 19.43954721 115.78854706 15.81410217 115.77818298 C14.07576896 115.77551516 12.33741614 115.77878742 10.59910583 115.7881012 C8.16905842 115.79826399 5.74048456 115.78277124 3.31054688 115.76049805 C2.59250381 115.76859497 1.87446075 115.77669189 1.13465881 115.78503418 C-2.25931737 115.72741892 -4.05918398 115.44694037 -6.80969238 113.39025879 C-8.33203125 111.24291992 -8.33203125 111.24291992 -8.33203125 108.36791992 C-7.33203125 105.24291992 -7.33203125 105.24291992 -5.39453125 102.36791992 C-0.16190114 94.43969248 -1.03670773 85.23973375 -1.06640625 76.08666992 C-1.0650564 74.61511165 -1.06311322 73.14355382 -1.06060791 71.67199707 C-1.05767167 68.59907758 -1.06190569 65.52627496 -1.07128906 62.45336914 C-1.08268275 58.53302455 -1.0761152 54.61295389 -1.06414413 50.69261932 C-1.05688482 47.65726696 -1.05923207 44.62197854 -1.06439972 41.58662415 C-1.06572498 40.1418708 -1.06412831 38.69711146 -1.05944061 37.25236511 C-0.74264254 23.96260486 -0.74264254 23.96260486 -6.01953125 12.11791992 C-7.9423196 9.23657337 -8.33203125 8.48410621 -8.33203125 4.86791992 C-6.69684284 0.57555035 -4.23757885 -0.00788389 0 0 Z M127.66796875 40.24291992 C120.99786042 55.66754544 120.83335702 79.48946825 126.66796875 95.24291992 C128.12787755 98.11614468 129.06750171 99.18673668 131.66796875 101.24291992 C134.71137002 102.07641943 134.71137002 102.07641943 137.66796875 101.24291992 C142.57426772 97.87860063 144.11545162 92.11534179 145.19360352 86.51025391 C146.02895026 80.75655064 145.89448028 74.98500925 145.91796875 69.18041992 C145.93859375 67.93325195 145.95921875 66.68608398 145.98046875 65.40112305 C146.2015743 50.81794944 146.2015743 50.81794944 140.35546875 37.93041992 C135.16330423 34.6702236 131.21282486 35.2312268 127.66796875 40.24291992 Z " fill="#8C52FF" transform="translate(187.33203125,474.757080078125)"/>
<path d="M0 0 C1.46953125 -0.03867187 1.46953125 -0.03867187 2.96875 -0.078125 C5.5 0.25 5.5 0.25 7.32421875 1.546875 C9.26886886 4.36371038 8.79519586 6.94380635 8.5 10.25 C6.5 13.25 6.5 13.25 4.3359375 13.76171875 C3.11777344 13.84873047 3.11777344 13.84873047 1.875 13.9375 C1.05773437 14.00324219 0.24046875 14.06898438 -0.6015625 14.13671875 C-1.22804688 14.17410156 -1.85453125 14.21148437 -2.5 14.25 C-2.10167969 14.6625 -1.70335937 15.075 -1.29296875 15.5 C5.87111867 23.30902959 7.09920232 30.10516246 6.83984375 40.5625 C5.96826732 50.01960518 1.63716179 57.05548222 -5.5 63.25 C-13.66190554 68.4869034 -22.28433625 70.41947732 -31.8125 71.3125 C-37.32410827 71.62937933 -37.32410827 71.62937933 -42.5 73.25 C-43.15213292 75.27463255 -43.15213292 75.27463255 -43.5 77.25 C-41.49928034 76.96331151 -39.49945581 76.67037415 -37.5 76.375 C-36.38625 76.21257812 -35.2725 76.05015625 -34.125 75.8828125 C-31.52104412 75.42824262 -29.12965138 74.89611819 -26.59765625 74.19921875 C-22.34918179 73.1061398 -18.3091156 72.91771893 -13.9375 72.9375 C-13.22142578 72.92138672 -12.50535156 72.90527344 -11.76757812 72.88867188 C-5.30970298 72.88279574 -0.66779617 74.37124332 4.3125 78.6875 C8.68760514 83.81262316 8.87878139 87.71565116 8.75 94.33984375 C8.21157484 100.60744915 5.12531698 104.24139195 0.5 108.25 C-13.89626192 120.23470536 -38.35554559 119.2922767 -55.9375 117.75 C-65.73228788 116.37529293 -76.18278306 114.38674746 -83.5 107.25 C-87.00241462 102.55140553 -88.26221011 98.12990658 -87.5 92.25 C-85.87053927 88.0134021 -84.32222157 85.65759152 -80.5 83.25 C-75.922254 82.05646226 -71.77590968 81.85741241 -67.25 83.25 C-62.91967764 86.39932535 -59.92587219 90.3035713 -56.77734375 94.6015625 C-52.24563058 100.82714053 -52.24563058 100.82714053 -45.5 104.25 C-39.77758717 104.8799904 -34.91548095 104.09356798 -29.5 102.25 C-29.5 99.28 -29.5 96.31 -29.5 93.25 C-34.02530413 91.87869572 -38.54367061 90.51109968 -43.10546875 89.265625 C-44.32878906 88.93046875 -45.55210937 88.5953125 -46.8125 88.25 C-48.53919922 87.7859375 -48.53919922 87.7859375 -50.30078125 87.3125 C-54.39096479 85.95409961 -57.45221306 84.29778694 -60.5 81.25 C-60.84503098 77.52366541 -60.98548923 75.11064 -59.125 71.8125 C-57.5 70.25 -57.5 70.25 -55.5 70.25 C-55.5 69.59 -55.5 68.93 -55.5 68.25 C-56.44875 68.188125 -57.3975 68.12625 -58.375 68.0625 C-66.93359078 66.80032399 -74.80677171 61.61376407 -80.5 55.25 C-86.37977996 46.60584588 -87.94862931 38.11924906 -86.0390625 27.74609375 C-83.2978477 18.47433781 -77.77452893 12.68043357 -69.56640625 7.7890625 C-56.00717007 0.98353504 -42.42316525 1.12390441 -27.625 1.2890625 C-21.31899106 1.33176685 -15.15388757 1.13625652 -8.88037109 0.49023438 C-5.91825467 0.19128847 -2.9764191 0.04800676 0 0 Z M-46.10546875 16.609375 C-52.15351489 23.7247234 -51.12498721 34.44689856 -50.66845703 43.22412109 C-50.19335407 48.93775059 -48.61055765 52.77926149 -45.1875 57.3125 C-42.62212712 59.4266364 -42.62212712 59.4266364 -39.5 59.9375 C-36.12535497 59.16414385 -34.74767236 57.914637 -32.578125 55.24609375 C-29.34645615 49.2628228 -29.11251085 43.06611455 -29.125 36.4375 C-29.12661133 35.55328369 -29.12822266 34.66906738 -29.12988281 33.75805664 C-29.24813717 27.46912776 -29.74032974 21.52978385 -33.5 16.25 C-37.9880439 12.10505037 -41.59693113 12.45467197 -46.10546875 16.609375 Z " fill="#8C52FF" transform="translate(890.5,496.75)"/>
<path d="M0 0 C8.90516668 6.91078039 14.04651665 16.97048719 16 28 C17.36443279 41.74460912 16.16057781 55.50526207 7.74609375 66.94140625 C-1.17986764 77.46485514 -12.30559247 82.67295109 -26 84 C-41.29672015 85.0113534 -56.06755769 82.58143959 -68.25 72.8125 C-77.78603498 63.91220069 -81.2949188 52.12152351 -81.99609375 39.42578125 C-82.01157445 25.84920903 -78.87876396 12.8877903 -69.20703125 2.96484375 C-51.00802831 -13.23710046 -19.69703107 -13.51093225 0 0 Z M-38.25 6.375 C-47.18143152 19.77214728 -45.14395068 41.80647757 -42.703125 56.95703125 C-41.53324229 62.02002363 -39.72751235 66.27248765 -36 70 C-32.1971351 70.59155676 -30.52670077 70.3552168 -27.3125 68.1875 C-21.28160553 59.87464546 -21.52194342 49.55784823 -21.60888672 39.67529297 C-21.62497821 37.50294223 -21.60895485 35.33245104 -21.58984375 33.16015625 C-21.57606977 23.86291874 -22.19046862 15.11736073 -26.75 6.8125 C-28.98466484 4.70577154 -28.98466484 4.70577154 -32.5 4.4375 C-35.92977667 4.76165333 -35.92977667 4.76165333 -38.25 6.375 Z " fill="#8C52FF" transform="translate(456,506)"/>
<path d="M0 0 C1.50240234 -0.02513672 1.50240234 -0.02513672 3.03515625 -0.05078125 C7.27275655 0.47963171 9.77004044 2.10911861 12.71484375 5.14453125 C15.19999506 9.55110946 14.6795338 14.4432865 13.9375 19.3125 C10.54488039 27.39016574 3.3717886 33.82793925 -4.375 37.6875 C-10.52620798 40.14160888 -17.63211893 41.57375094 -24 39.1875 C-27.4288198 37.08822257 -29.16717909 35.87570332 -31.0625 32.3125 C-32.20522714 25.47969857 -30.88936778 20.01736771 -27.0625 14.3125 C-24.32428029 10.51929521 -21.65359297 8.09686467 -17.6875 5.625 C-16.77226563 5.04363281 -15.85703125 4.46226562 -14.9140625 3.86328125 C-9.95763733 1.16780071 -5.63584178 0.02181616 0 0 Z " fill="#8C52FF" transform="translate(673.0625,459.6875)"/>
</svg>
